<svg id="Solid_gradient" height="512" viewBox="0 0 512 512" width="512" xmlns="http://www.w3.org/2000/svg" xmlns:xlink="http://www.w3.org/1999/xlink" data-name="Solid gradient"><linearGradient id="linear-gradient" gradientUnits="userSpaceOnUse" x1="312" x2="312" y1=".54" y2="593.353"><stop offset="0" stop-color="#ff80c9"/><stop offset=".196" stop-color="#f67bcf"/><stop offset=".514" stop-color="#de6fdf"/><stop offset=".915" stop-color="#b65af9"/><stop offset="1" stop-color="#ad55ff"/></linearGradient><linearGradient id="linear-gradient-2" x1="183.544" x2="183.544" xlink:href="#linear-gradient" y1=".54" y2="593.353"/><linearGradient id="linear-gradient-3" x1="192" x2="192" xlink:href="#linear-gradient" y1=".54" y2="593.353"/><linearGradient id="linear-gradient-4" x1="328.456" x2="328.456" xlink:href="#linear-gradient" y1=".54" y2="593.353"/><g><path d="m309.908 304-14.769 48h33.722l-14.769-48z" fill="url(#linear-gradient)"/><path d="m328 246v-156a10 10 0 0 0 -10-10h-236a10 10 0 0 0 -10 10v30a8 8 0 0 1 -8 8h-24.911l31.533 46.511a8 8 0 0 1 1.378 4.489v67a10 10 0 0 0 10 10h236a10 10 0 0 0 10-10zm-216-134h-8v8h-16v-16a8 8 0 0 1 8-8h16zm130.879 118.146-18.263-15.219a27.931 27.931 0 0 1 -20.616 9.073h-24a28.032 28.032 0 0 1 -28-28v-56a28.032 28.032 0 0 1 28-28h24a28.032 28.032 0 0 1 28 28v56a28.117 28.117 0 0 1 -.287 4.014l21.408 17.84zm69.121 1.854a8 8 0 0 1 -8 8h-16v-16h8v-8h16z" fill="url(#linear-gradient-2)"/><path d="m204 128h-24a12.013 12.013 0 0 0 -12 12v56a12.013 12.013 0 0 0 12 12h24a11.956 11.956 0 0 0 8.3-3.339l-17.418-14.515 10.242-12.292 10.876 9.066v-46.92a12.013 12.013 0 0 0 -12-12z" fill="url(#linear-gradient-3)"/><path d="m441.378 337.489a8 8 0 0 1 -1.378-4.489v-67a10 10 0 0 0 -10-10h-86.111a18.025 18.025 0 0 1 -17.889 16h-142v150a10 10 0 0 0 10 10h236a10 10 0 0 0 10-10v-30a8 8 0 0 1 8-8h24.911zm-217.378 78.511h-16a8 8 0 0 1 -8-8v-16h16v8h8zm120.354-13.647-10.57-34.353h-43.568l-10.57 34.353-15.292-4.706 32-104a8 8 0 0 1 7.646-5.647h16a8 8 0 0 1 7.646 5.647l32 104zm79.646-106.353h-16v-8h-8v-16h16a8 8 0 0 1 8 8z" fill="url(#linear-gradient-4)"/></g></svg>